<svg xmlns="http://www.w3.org/2000/svg" id="b9bf6650-716f-405e-b16b-128ee0039b2f" data-name="Layer 1" width="400" height="350" viewBox="250 70 580 400"><title>Books</title><circle cx="524.42503" cy="287.85888" r="158.76957" fill="#007bff" opacity="0.3"/><polygon points="459.223 85.873 353.51 214.137 509.965 398.782 614.268 276.156 459.223 85.873" fill="#007bff"/><polygon points="459.223 85.873 353.51 214.137 509.965 398.782 614.268 276.156 459.223 85.873" opacity="0.1"/><path d="M439.73866,380.56133h0a53.13136,53.13136,0,0,1,8.61915-11.50844l97.09359-98.43281s33.82807-5.638,40.87559,11.276L462.29072,383.38033Z" transform="translate(-82 -165.01433)" fill="#f2f2f2"/><path d="M434.8054,378.44707l143.76933,219.8825s14.095,9.86653,28.19007,4.22851l147.29308-99.37L597.603,266.39156,456.6527,376.33282Z" transform="translate(-82 -165.01433)" fill="#007bff"/><rect x="480.03892" y="332.90544" width="111.09199" height="2.28426" transform="translate(-176.28508 210.29789) rotate(-35.7003)" fill="#3f3d56"/><rect x="545.71885" y="372.62133" width="2.28442" height="214.62012" transform="translate(-256.01839 216.30687) rotate(-33.48132)" fill="#3f3d56"/><rect x="608.59471" y="538.69279" width="118.96652" height="2.285" transform="translate(-271.96473 335.92317) rotate(-36.34406)" fill="#3f3d56"/><rect x="656.36553" y="285.21166" width="2.28364" height="214.66085" transform="translate(-188.39818 280.94637) rotate(-34.83794)" fill="#3f3d56"/><rect x="428.26937" y="320.21875" width="151.38646" height="1.4087" transform="translate(-166.32865 260.23205) rotate(-42.54484)" fill="#3f3d56"/><rect x="432.98129" y="321.37736" width="155.49191" height="1.41013" transform="translate(-167.30716 253.62067) rotate(-41.43847)" fill="#3f3d56"/><rect x="437.01734" y="322.42031" width="157.53272" height="1.41026" transform="translate(-169.30193 240.15132) rotate(-39.81273)" fill="#3f3d56"/></svg>
