<svg id="e4110a9f-f3dd-43c7-a69f-77d1c85ae255" data-name="Layer 1" xmlns="http://www.w3.org/2000/svg" width="1137.93" height="741.16" viewBox="0 0 1137.93 741.16"><title>financial data</title><path d="M254.46,551.69l-6.29-3.91c-.6-.37-1.19-.77-1.79-1.15A59.86,59.86,0,0,0,252.43,430l.31,24.67-13.55-26.83H239a59.85,59.85,0,0,0-62.58,57c-.06,1.14,0,2.27,0,3.4-4.71-5.38-9-11.15-11.83-17.47-5.73-12.79-5.84-27.29-5.39-44.9.9-34.91,2.41-70.08,4.37-105.14a59.85,59.85,0,0,0,53.16-56.64c.08-1.83.05-3.64,0-5.43,0-.45,0-.9-.07-1.34-.12-1.74-.28-3.46-.55-5.16,0-.28-.1-.55-.15-.82-.24-1.44-.54-2.86-.88-4.27-.13-.52-.26-1-.4-1.57-.42-1.52-.88-3-1.42-4.51-.18-.49-.39-1-.58-1.46-.42-1.09-.88-2.17-1.37-3.23-.26-.56-.51-1.12-.78-1.67-.08-.14-.13-.29-.21-.43h0A59.8,59.8,0,0,0,140,203.86l.4,32.1L127,209.44A59.57,59.57,0,0,0,98.45,274h-.06c.09.43.22.83.32,1.26.19.79.39,1.57.61,2.35.28,1,.6,2,.93,3,.25.73.49,1.47.77,2.2.41,1.06.87,2.09,1.33,3.12.27.6.51,1.22.8,1.81q1.14,2.33,2.48,4.53c.31.52.66,1,1,1.51.64,1,1.28,2,2,2.93.43.59.89,1.15,1.34,1.73.66.83,1.33,1.65,2,2.44.49.57,1,1.11,1.51,1.66.74.77,1.49,1.52,2.27,2.26.51.49,1,1,1.57,1.46.88.78,1.8,1.53,2.73,2.26.47.36.93.75,1.41,1.11,1.42,1,2.88,2,4.39,3,.28.18.59.32.87.49,1.27.74,2.55,1.44,3.87,2.09.57.28,1.15.52,1.73.78,1.08.49,2.17,1,3.29,1.38.65.25,1.31.48,2,.71,1.1.37,2.22.71,3.35,1,.66.18,1.33.37,2,.53,1.22.29,2.47.53,3.73.75l.24.05q-1.23,22.18-2.2,44.39a59.81,59.81,0,0,0-83.07-26l10.58,29L50.45,346.8a59.66,59.66,0,0,0-19.34,41.33,58.43,58.43,0,0,0,1.52,16.49,59.84,59.84,0,0,0,110.06,16.31c0,1.5-.1,3-.14,4.51-.4,15.54-.9,34.88,6.85,52.15,5.25,11.7,13.69,21.2,22,29.72,5.43,5.55,11.06,10.91,16.83,16.1a59.89,59.89,0,0,0,21.62,18c9.48,7.31,19.3,14.18,29.45,20.52l6.34,3.94c5.7,3.53,11.54,7.16,17.26,10.93-1-.1-2-.21-3-.26a59.89,59.89,0,0,0-58.94,39l37.4,30.43-41.14-9.54a59.89,59.89,0,0,0,85.82,53.91q-1.38,1.74-2.78,3.46-2.76,3.43-5.45,6.82c-24.34,30.82-31.11,60.09-19.06,82.4l14.66-7.92c-11.73-21.71,5.91-49.51,17.47-64.15q2.64-3.35,5.36-6.7C308.81,684.88,326.43,663,326,636.12,325.35,595.63,286,571.27,254.46,551.69Z" transform="translate(-31.03 -79.42)" fill="#f2f2f2"/><path d="M833.47,429.69l6.29-3.91c.6-.37,1.19-.77,1.79-1.15a59.86,59.86,0,0,1-6-116.63l-.31,24.67,13.55-26.83h.17a59.85,59.85,0,0,1,62.58,57c.06,1.14,0,2.27,0,3.4,4.71-5.38,9-11.15,11.83-17.47,5.73-12.79,5.84-27.29,5.39-44.9-.9-34.91-2.41-70.08-4.37-105.14a59.85,59.85,0,0,1-53.16-56.64c-.08-1.83-.05-3.64,0-5.43,0-.45,0-.9.07-1.34.12-1.74.28-3.46.55-5.16,0-.28.1-.55.15-.82.24-1.44.54-2.86.88-4.27.13-.52.26-1,.4-1.57.42-1.52.88-3,1.42-4.51.18-.49.39-1,.58-1.46.42-1.09.88-2.17,1.37-3.23.26-.56.51-1.12.79-1.67.07-.14.12-.29.2-.43h0a59.8,59.8,0,0,1,70.28-30.35l-.4,32.1,13.4-26.52A59.57,59.57,0,0,1,989.48,152h.06c-.09.43-.22.83-.32,1.26-.19.79-.39,1.57-.61,2.35-.28,1-.6,2-.93,3-.25.73-.49,1.47-.77,2.2-.41,1.06-.87,2.09-1.33,3.12-.27.6-.51,1.22-.8,1.81q-1.14,2.33-2.48,4.53c-.31.52-.66,1-1,1.51-.64,1-1.28,2-2,2.93-.43.59-.89,1.15-1.34,1.73-.66.83-1.33,1.65-2,2.44-.49.57-1,1.11-1.51,1.66-.73.77-1.49,1.52-2.27,2.26-.51.49-1,1-1.57,1.46-.88.78-1.8,1.53-2.73,2.26-.47.36-.93.75-1.41,1.11-1.42,1-2.88,2-4.39,2.95-.28.18-.59.32-.87.49-1.27.74-2.55,1.44-3.87,2.09-.57.28-1.15.52-1.73.78-1.08.49-2.17,1-3.29,1.38-.65.25-1.31.48-2,.71-1.1.37-2.22.71-3.35,1-.66.18-1.33.37-2,.53-1.22.29-2.47.53-3.73.75l-.24,0q1.23,22.19,2.2,44.39a59.81,59.81,0,0,1,83.07-26l-10.58,29,21.77-20.9a59.66,59.66,0,0,1,19.34,41.33,58.43,58.43,0,0,1-1.52,16.49,59.84,59.84,0,0,1-110.06,16.31c0,1.5.11,3,.14,4.51.4,15.54.9,34.88-6.85,52.15-5.25,11.7-13.69,21.2-22,29.72-5.43,5.55-11.06,10.91-16.83,16.1a59.89,59.89,0,0,1-21.62,18c-9.48,7.31-19.3,14.18-29.45,20.52l-6.34,3.94c-5.7,3.53-11.54,7.16-17.26,10.93,1-.1,2-.21,3-.26a59.89,59.89,0,0,1,58.94,39l-37.4,30.43,41.14-9.54a59.89,59.89,0,0,1-85.82,53.91q1.38,1.74,2.78,3.46,2.76,3.43,5.45,6.82c24.34,30.82,31.11,60.09,19.06,82.4l-14.66-7.92c11.73-21.71-5.91-49.51-17.47-64.15q-2.64-3.35-5.36-6.7c-15.55-19.32-33.17-41.22-32.74-68.08C762.58,473.63,801.89,449.27,833.47,429.69Z" transform="translate(-31.03 -79.42)" fill="#f2f2f2"/><ellipse cx="642.75" cy="708.16" rx="495.18" ry="33" fill="#f2f2f2"/><polygon points="659.38 709.16 481.19 706.88 481.71 702.31 490.33 626.92 646.82 626.92 658.33 702.31 659.21 708.02 659.38 709.16" fill="#2f2e41"/><polygon points="659.21 708.02 570.28 708.02 481.19 706.88 481.71 702.31 658.33 702.31 659.21 708.02" opacity="0.1"/><rect x="451.49" y="703.45" width="236.45" height="5.71" fill="#3f3d56"/><path d="M944.57,253.53a14.87,14.87,0,0,0-14.8-14.94H269.45a14.87,14.87,0,0,0-14.8,14.94V653.79H944.57Z" transform="translate(-31.03 -79.42)" fill="#3f3d56"/><path d="M254.65,649.8v46.88a14.8,14.8,0,0,0,14.8,14.8H929.77a14.8,14.8,0,0,0,14.8-14.8V649.8Z" transform="translate(-31.03 -79.42)" fill="#3f3d56"/><rect x="252.17" y="184.3" width="636.23" height="359.81" fill="#2f2e41"/><path d="M603,693.69a15.4,15.4,0,0,0,12.13-5.89h0a15.28,15.28,0,0,0,1.2-1.77l-8.46-1.39,9.15.07a15.5,15.5,0,0,0,.3-12.22l-12.28,6.37,11.32-8.32a15.42,15.42,0,1,0-25.47,17.26h0A15.4,15.4,0,0,0,603,693.69Z" transform="translate(-31.03 -79.42)" fill="#007bff"/><polygon points="587.42 632.06 658.51 703.45 647.6 632.06 587.42 632.06" opacity="0.1"/><path d="M809.38,760.2,828.53,749a46.37,46.37,0,0,0-9.79-11.71l-36.11,11.23,28.29-16.64a46,46,0,0,0-68.1,40.35c0,25.41,20.6,26.29,46,26.29s46-.88,46-26.29a45.9,45.9,0,0,0-3.94-18.66Z" transform="translate(-31.03 -79.42)" fill="#57b894"/><path d="M814.26,784.9a36.2,36.2,0,0,0-6.79-5.33c-3.47-2.31-7.07-4.66-11.17-5.45-3.59-.69-7.31-.11-11-.31a25.65,25.65,0,0,1-16.81-7.71c-2.62-2.7-4.67-6-7.82-8.09-3.39-2.22-7.69-2.7-11.7-2.15a31.41,31.41,0,0,0-3.47.72,45.8,45.8,0,0,0-2.72,15.6c0,25.41,20.6,26.29,46,26.29,12.33,0,23.53-.21,31.79-3.33l-1.38-2.58A36.08,36.08,0,0,0,814.26,784.9Z" transform="translate(-31.03 -79.42)" opacity="0.1"/><rect x="280.43" y="323.11" width="21.15" height="6.42" fill="#007bff" opacity="0.3"/><rect x="844.78" y="323.3" width="21.15" height="6.42" fill="#007bff" opacity="0.3"/><rect x="280.62" y="368.24" width="21.15" height="6.42" fill="#007bff" opacity="0.3"/><rect x="280.81" y="413.37" width="21.15" height="6.42" fill="#007bff" opacity="0.3"/><rect x="281" y="458.49" width="21.15" height="6.42" fill="#007bff" opacity="0.3"/><g opacity="0.2"><rect x="301.58" y="326.2" width="6" height="0.25" fill="#f2f2f2"/><path d="M857.64,405.87H845.85v-.25h11.79Zm-23.59,0H822.26v-.25h11.79Zm-23.59,0h-11.8v-.25h11.8Zm-23.59,0h-11.8v-.25h11.8Zm-23.59,0h-11.8v-.25h11.8Zm-23.6,0H727.89v-.25h11.79Zm-23.59,0h-11.8v-.25h11.8Zm-23.59,0H680.7v-.25h11.8Zm-23.59,0h-11.8v-.25h11.8Zm-23.6,0H633.52v-.25h11.79Zm-23.59,0h-11.8v-.25h11.8Zm-23.59,0h-11.8v-.25h11.8Zm-23.59,0h-11.8v-.25h11.8Zm-23.6,0H539.15v-.25h11.79Zm-23.59,0H515.56v-.25h11.79Zm-23.59,0H492v-.25h11.8Zm-23.59,0h-11.8v-.25h11.8Zm-23.6,0H444.78v-.25h11.79Zm-23.59,0H421.19v-.25H433Zm-23.59,0h-11.8v-.25h11.8Zm-23.59,0H374v-.25h11.8Zm-23.6,0H350.41v-.25H362.2Z" transform="translate(-31.03 -79.42)" fill="#f2f2f2"/><rect x="838.41" y="326.2" width="6" height="0.25" fill="#f2f2f2"/><rect x="301.58" y="326.2" width="6" height="0.25" fill="#f2f2f2"/><path d="M857.64,405.87H845.85v-.25h11.79Zm-23.59,0H822.26v-.25h11.79Zm-23.59,0h-11.8v-.25h11.8Zm-23.59,0h-11.8v-.25h11.8Zm-23.59,0h-11.8v-.25h11.8Zm-23.6,0H727.89v-.25h11.79Zm-23.59,0h-11.8v-.25h11.8Zm-23.59,0H680.7v-.25h11.8Zm-23.59,0h-11.8v-.25h11.8Zm-23.6,0H633.52v-.25h11.79Zm-23.59,0h-11.8v-.25h11.8Zm-23.59,0h-11.8v-.25h11.8Zm-23.59,0h-11.8v-.25h11.8Zm-23.6,0H539.15v-.25h11.79Zm-23.59,0H515.56v-.25h11.79Zm-23.59,0H492v-.25h11.8Zm-23.59,0h-11.8v-.25h11.8Zm-23.6,0H444.78v-.25h11.79Zm-23.59,0H421.19v-.25H433Zm-23.59,0h-11.8v-.25h11.8Zm-23.59,0H374v-.25h11.8Zm-23.6,0H350.41v-.25H362.2Z" transform="translate(-31.03 -79.42)" fill="#f2f2f2"/><rect x="838.41" y="326.2" width="6" height="0.25" fill="#f2f2f2"/></g><rect x="280.43" y="278.11" width="21.15" height="6.42" fill="#007bff" opacity="0.3"/><rect x="844.78" y="278.3" width="21.15" height="6.42" fill="#007bff" opacity="0.3"/><g opacity="0.2"><rect x="301.58" y="281.2" width="6" height="0.25" fill="#f2f2f2"/><path d="M857.64,360.87H845.85v-.25h11.79Zm-23.59,0H822.26v-.25h11.79Zm-23.59,0h-11.8v-.25h11.8Zm-23.59,0h-11.8v-.25h11.8Zm-23.59,0h-11.8v-.25h11.8Zm-23.6,0H727.89v-.25h11.79Zm-23.59,0h-11.8v-.25h11.8Zm-23.59,0H680.7v-.25h11.8Zm-23.59,0h-11.8v-.25h11.8Zm-23.6,0H633.52v-.25h11.79Zm-23.59,0h-11.8v-.25h11.8Zm-23.59,0h-11.8v-.25h11.8Zm-23.59,0h-11.8v-.25h11.8Zm-23.6,0H539.15v-.25h11.79Zm-23.59,0H515.56v-.25h11.79Zm-23.59,0H492v-.25h11.8Zm-23.59,0h-11.8v-.25h11.8Zm-23.6,0H444.78v-.25h11.79Zm-23.59,0H421.19v-.25H433Zm-23.59,0h-11.8v-.25h11.8Zm-23.59,0H374v-.25h11.8Zm-23.6,0H350.41v-.25H362.2Z" transform="translate(-31.03 -79.42)" fill="#f2f2f2"/><rect x="838.41" y="281.2" width="6" height="0.25" fill="#f2f2f2"/></g><rect x="844.78" y="368.24" width="21.15" height="6.42" fill="#007bff" opacity="0.3"/><g opacity="0.2"><rect x="301.58" y="371.14" width="6" height="0.25" fill="#f2f2f2"/><path d="M857.64,450.8H845.85v-.25h11.79Zm-23.59,0H822.26v-.25h11.79Zm-23.59,0h-11.8v-.25h11.8Zm-23.59,0h-11.8v-.25h11.8Zm-23.59,0h-11.8v-.25h11.8Zm-23.6,0H727.89v-.25h11.79Zm-23.59,0h-11.8v-.25h11.8Zm-23.59,0H680.7v-.25h11.8Zm-23.59,0h-11.8v-.25h11.8Zm-23.6,0H633.52v-.25h11.79Zm-23.59,0h-11.8v-.25h11.8Zm-23.59,0h-11.8v-.25h11.8Zm-23.59,0h-11.8v-.25h11.8Zm-23.6,0H539.15v-.25h11.79Zm-23.59,0H515.56v-.25h11.79Zm-23.59,0H492v-.25h11.8Zm-23.59,0h-11.8v-.25h11.8Zm-23.6,0H444.78v-.25h11.79Zm-23.59,0H421.19v-.25H433Zm-23.59,0h-11.8v-.25h11.8Zm-23.59,0H374v-.25h11.8Zm-23.6,0H350.41v-.25H362.2Z" transform="translate(-31.03 -79.42)" fill="#f2f2f2"/><rect x="838.41" y="371.14" width="6" height="0.25" fill="#f2f2f2"/><rect x="301.58" y="371.14" width="6" height="0.25" fill="#f2f2f2"/><path d="M857.64,450.8H845.85v-.25h11.79Zm-23.59,0H822.26v-.25h11.79Zm-23.59,0h-11.8v-.25h11.8Zm-23.59,0h-11.8v-.25h11.8Zm-23.59,0h-11.8v-.25h11.8Zm-23.6,0H727.89v-.25h11.79Zm-23.59,0h-11.8v-.25h11.8Zm-23.59,0H680.7v-.25h11.8Zm-23.59,0h-11.8v-.25h11.8Zm-23.6,0H633.52v-.25h11.79Zm-23.59,0h-11.8v-.25h11.8Zm-23.59,0h-11.8v-.25h11.8Zm-23.59,0h-11.8v-.25h11.8Zm-23.6,0H539.15v-.25h11.79Zm-23.59,0H515.56v-.25h11.79Zm-23.59,0H492v-.25h11.8Zm-23.59,0h-11.8v-.25h11.8Zm-23.6,0H444.78v-.25h11.79Zm-23.59,0H421.19v-.25H433Zm-23.59,0h-11.8v-.25h11.8Zm-23.59,0H374v-.25h11.8Zm-23.6,0H350.41v-.25H362.2Z" transform="translate(-31.03 -79.42)" fill="#f2f2f2"/><rect x="838.41" y="371.14" width="6" height="0.25" fill="#f2f2f2"/></g><rect x="844.78" y="413.18" width="21.15" height="6.42" fill="#007bff" opacity="0.3"/><g opacity="0.2"><rect x="301.58" y="416.07" width="6" height="0.25" fill="#f2f2f2"/><path d="M857.64,495.74H845.85v-.25h11.79Zm-23.59,0H822.26v-.25h11.79Zm-23.59,0h-11.8v-.25h11.8Zm-23.59,0h-11.8v-.25h11.8Zm-23.59,0h-11.8v-.25h11.8Zm-23.6,0H727.89v-.25h11.79Zm-23.59,0h-11.8v-.25h11.8Zm-23.59,0H680.7v-.25h11.8Zm-23.59,0h-11.8v-.25h11.8Zm-23.6,0H633.52v-.25h11.79Zm-23.59,0h-11.8v-.25h11.8Zm-23.59,0h-11.8v-.25h11.8Zm-23.59,0h-11.8v-.25h11.8Zm-23.6,0H539.15v-.25h11.79Zm-23.59,0H515.56v-.25h11.79Zm-23.59,0H492v-.25h11.8Zm-23.59,0h-11.8v-.25h11.8Zm-23.6,0H444.78v-.25h11.79Zm-23.59,0H421.19v-.25H433Zm-23.59,0h-11.8v-.25h11.8Zm-23.59,0H374v-.25h11.8Zm-23.6,0H350.41v-.25H362.2Z" transform="translate(-31.03 -79.42)" fill="#f2f2f2"/><rect x="838.41" y="416.07" width="6" height="0.25" fill="#f2f2f2"/><rect x="301.58" y="416.07" width="6" height="0.25" fill="#f2f2f2"/><path d="M857.64,495.74H845.85v-.25h11.79Zm-23.59,0H822.26v-.25h11.79Zm-23.59,0h-11.8v-.25h11.8Zm-23.59,0h-11.8v-.25h11.8Zm-23.59,0h-11.8v-.25h11.8Zm-23.6,0H727.89v-.25h11.79Zm-23.59,0h-11.8v-.25h11.8Zm-23.59,0H680.7v-.25h11.8Zm-23.59,0h-11.8v-.25h11.8Zm-23.6,0H633.52v-.25h11.79Zm-23.59,0h-11.8v-.25h11.8Zm-23.59,0h-11.8v-.25h11.8Zm-23.59,0h-11.8v-.25h11.8Zm-23.6,0H539.15v-.25h11.79Zm-23.59,0H515.56v-.25h11.79Zm-23.59,0H492v-.25h11.8Zm-23.59,0h-11.8v-.25h11.8Zm-23.6,0H444.78v-.25h11.79Zm-23.59,0H421.19v-.25H433Zm-23.59,0h-11.8v-.25h11.8Zm-23.59,0H374v-.25h11.8Zm-23.6,0H350.41v-.25H362.2Z" transform="translate(-31.03 -79.42)" fill="#f2f2f2"/><rect x="838.41" y="416.07" width="6" height="0.25" fill="#f2f2f2"/></g><rect x="844.78" y="458.11" width="21.15" height="6.42" fill="#007bff" opacity="0.3"/><g opacity="0.2"><rect x="301.58" y="461.01" width="6" height="0.25" fill="#f2f2f2"/><path d="M857.64,540.68H845.85v-.25h11.79Zm-23.59,0H822.26v-.25h11.79Zm-23.59,0h-11.8v-.25h11.8Zm-23.59,0h-11.8v-.25h11.8Zm-23.59,0h-11.8v-.25h11.8Zm-23.6,0H727.89v-.25h11.79Zm-23.59,0h-11.8v-.25h11.8Zm-23.59,0H680.7v-.25h11.8Zm-23.59,0h-11.8v-.25h11.8Zm-23.6,0H633.52v-.25h11.79Zm-23.59,0h-11.8v-.25h11.8Zm-23.59,0h-11.8v-.25h11.8Zm-23.59,0h-11.8v-.25h11.8Zm-23.6,0H539.15v-.25h11.79Zm-23.59,0H515.56v-.25h11.79Zm-23.59,0H492v-.25h11.8Zm-23.59,0h-11.8v-.25h11.8Zm-23.6,0H444.78v-.25h11.79Zm-23.59,0H421.19v-.25H433Zm-23.59,0h-11.8v-.25h11.8Zm-23.59,0H374v-.25h11.8Zm-23.6,0H350.41v-.25H362.2Z" transform="translate(-31.03 -79.42)" fill="#f2f2f2"/><rect x="838.41" y="461.01" width="6" height="0.25" fill="#f2f2f2"/><rect x="301.58" y="461.01" width="6" height="0.25" fill="#f2f2f2"/><path d="M857.64,540.68H845.85v-.25h11.79Zm-23.59,0H822.26v-.25h11.79Zm-23.59,0h-11.8v-.25h11.8Zm-23.59,0h-11.8v-.25h11.8Zm-23.59,0h-11.8v-.25h11.8Zm-23.6,0H727.89v-.25h11.79Zm-23.59,0h-11.8v-.25h11.8Zm-23.59,0H680.7v-.25h11.8Zm-23.59,0h-11.8v-.25h11.8Zm-23.6,0H633.52v-.25h11.79Zm-23.59,0h-11.8v-.25h11.8Zm-23.59,0h-11.8v-.25h11.8Zm-23.59,0h-11.8v-.25h11.8Zm-23.6,0H539.15v-.25h11.79Zm-23.59,0H515.56v-.25h11.79Zm-23.59,0H492v-.25h11.8Zm-23.59,0h-11.8v-.25h11.8Zm-23.6,0H444.78v-.25h11.79Zm-23.59,0H421.19v-.25H433Zm-23.59,0h-11.8v-.25h11.8Zm-23.59,0H374v-.25h11.8Zm-23.6,0H350.41v-.25H362.2Z" transform="translate(-31.03 -79.42)" fill="#f2f2f2"/><rect x="838.41" y="461.01" width="6" height="0.25" fill="#f2f2f2"/></g><line x1="370.53" y1="281.51" x2="370.53" y2="461.7" fill="none" stroke="#f2f2f2" stroke-miterlimit="10" stroke-width="0.1"/><line x1="443.53" y1="281.51" x2="443.53" y2="461.7" fill="none" stroke="#f2f2f2" stroke-miterlimit="10" stroke-width="0.1"/><line x1="516.53" y1="281.51" x2="516.53" y2="461.7" fill="none" stroke="#f2f2f2" stroke-miterlimit="10" stroke-width="0.1"/><line x1="589.53" y1="281.51" x2="589.53" y2="461.7" fill="none" stroke="#f2f2f2" stroke-miterlimit="10" stroke-width="0.1"/><line x1="662.53" y1="281.51" x2="662.53" y2="461.7" fill="none" stroke="#f2f2f2" stroke-miterlimit="10" stroke-width="0.1"/><line x1="735.53" y1="281.51" x2="735.53" y2="461.7" fill="none" stroke="#f2f2f2" stroke-miterlimit="10" stroke-width="0.1"/><line x1="808.53" y1="281.51" x2="808.53" y2="461.7" fill="none" stroke="#f2f2f2" stroke-miterlimit="10" stroke-width="0.1"/><path d="M855.35,348.77l-8.35,8.7a2.55,2.55,0,0,0-.42.61l-5.18,10.67a2.36,2.36,0,0,1-2.31,1.33l-1.66-.13a2.36,2.36,0,0,1-2.1-1.7l-1.6-5.54a2.37,2.37,0,0,0-4.52-.11l-2.69,7.88a2.37,2.37,0,0,1-2.25,1.61H814a2.38,2.38,0,0,1-2.34-2l-2.9-18.15a2.37,2.37,0,0,0-4.46-.7l-14.87,29.35a2.37,2.37,0,0,1-3.48.87l-8.84-6.24a2.39,2.39,0,0,0-3.17.38l-3.35,3.87a2.26,2.26,0,0,0-.26.37l-8.94,15.47a2.35,2.35,0,0,1-2.29,1.17l-5.45-.54a2.39,2.39,0,0,0-1.12.16l-4.88,1.95a2.37,2.37,0,0,1-3-1.25l-1.07-2.45a2.38,2.38,0,0,0-2.28-1.42l-5.58.26a2.34,2.34,0,0,0-1.77.93l-1.58,2.06a2.37,2.37,0,0,1-4.12-.66l-2-5.65a2.37,2.37,0,0,0-3.66-1.11l-9.5,7.12-10.5,8.47a2.38,2.38,0,0,1-2.58.26l-8.15-4.23a2.39,2.39,0,0,0-1.42-.24l-16.51,2.31a2.38,2.38,0,0,0-2,1.82L669,417a2.37,2.37,0,0,1-3.85,1.27h0a2.38,2.38,0,0,0-3.67.74l-2.25,4.51a2.4,2.4,0,0,1-1.73,1.28l-5.11.85a2.38,2.38,0,0,0-.92.37l-8.05,5.36a2.35,2.35,0,0,1-1.31.4h-3.77a2.37,2.37,0,0,1-2.18-1.43l-1-2.39a2.37,2.37,0,0,0-3.18-1.19l-8.74,4.09a2.38,2.38,0,0,1-2.23-.11l-4-2.41a2.39,2.39,0,0,0-1.22-.34h-8.83a2.37,2.37,0,0,0-1.31.4l-8.81,5.85a2.37,2.37,0,0,1-2.32.17l-4-1.89a2.37,2.37,0,0,0-2.79.59l-1.9,2.17a2.36,2.36,0,0,1-3.85-.4l-.57-1a2.37,2.37,0,0,0-3.28-.88l-6.93,4.11a2.37,2.37,0,0,1-2.36,0l-2.86-1.59a2.35,2.35,0,0,0-2.13-.09l-2.72,1.24a2.39,2.39,0,0,1-3.25-1.44L556.12,430a2.35,2.35,0,0,0-2.26-1.65H551.3a2.32,2.32,0,0,1-1.15-.3l-9.83-5.39a2.38,2.38,0,0,0-2.56.19l-7.21,5.4a2.35,2.35,0,0,1-1.42.47h-9.07a2.35,2.35,0,0,0-1.31.4l-1.7,1.13a2.37,2.37,0,0,1-3.44-.91l-.41-.81a2.36,2.36,0,0,0-2.12-1.32h-4.55a2.37,2.37,0,0,0-1.87.92l-2.82,3.61a2.37,2.37,0,0,1-3.87-.19l-.8-1.25a2.36,2.36,0,0,0-3.22-.76l-2.34,1.4a2.38,2.38,0,0,1-2.61-.11L479.57,424a2.86,2.86,0,0,0-.54-.3l-7.37-2.83a2.37,2.37,0,0,0-3,1.32l-5.13,12.5a2.14,2.14,0,0,0-.15.55l-1.66,11.26a2.38,2.38,0,0,1-.62,1.27l-3.51,3.77a2.39,2.39,0,0,1-2.89.45l-6.09-3.38a2.37,2.37,0,0,0-3.4,1.3l-3.86,11.29a2.27,2.27,0,0,0-.13.77v7.12a2.37,2.37,0,0,1-1.43,2.17L433.6,474a2.37,2.37,0,0,1-2.15-.14l-4.66-2.74a2.37,2.37,0,0,0-1.54-.3l-8.17,1.17a2.36,2.36,0,0,1-2.38-1.16l-1.38-2.36a2.35,2.35,0,0,0-1.34-1.06l-3.71-1.16a2.36,2.36,0,0,0-2.47.67l-5.15,5.72a2.4,2.4,0,0,1-1.57.78l-7.6.64a2.24,2.24,0,0,0-1,.3l-13.25,7.62a2.38,2.38,0,0,1-2.66-.21l-3.76-3a2.4,2.4,0,0,0-1.48-.52H355.09a2.35,2.35,0,0,1-1.85-.89l-3.59-4.48a2.37,2.37,0,0,0-3.61-.1l-4.32,4.8a2.37,2.37,0,0,0-.61,1.58v59.64a2.37,2.37,0,0,0,2.37,2.37H857.21a2.37,2.37,0,0,0,2.37-2.38l-.14-188.33A2.38,2.38,0,0,0,855.35,348.77Z" transform="translate(-31.03 -79.42)" fill="#007bff" opacity="0.3"/><path d="M854.89,426l-7.74,5.16a3,3,0,0,0-.71.67l-4.81,6.35a3,3,0,0,1-2.48,1.16l-1.57-.08a2.94,2.94,0,0,1-2.53-1.72l-1-2.13a2.92,2.92,0,0,0-5.25-.17l-2,3.83a2.92,2.92,0,0,1-2.59,1.55h-9.92a2.91,2.91,0,0,1-2.84-2.22l-2.38-9.53a2.93,2.93,0,0,0-5.14-1.11l-14.3,18.08a2.91,2.91,0,0,1-3.5.85l-9.19-4.15a2.93,2.93,0,0,0-3,.31l-3.29,2.43a2.72,2.72,0,0,0-.43.4l-8.68,9.61a2.93,2.93,0,0,1-2.36,1l-5.67-.36a3.16,3.16,0,0,0-.92.08l-5.11,1.31a2.92,2.92,0,0,1-3.15-1.18l-.58-.86a2.93,2.93,0,0,0-2.5-1.27l-5.7.17a2.82,2.82,0,0,0-1.79.68l-1.4,1.17a2.93,2.93,0,0,1-4.45-.83l-1.48-2.68a2.93,2.93,0,0,0-3.83-1.23l-9.59,4.61-10.61,5.48a2.91,2.91,0,0,1-2.26.17l-8.45-2.8a3,3,0,0,0-1.18-.14L674.15,460a3,3,0,0,0-2.5,1.93l-2.37,6.62a2.93,2.93,0,0,1-4.16,1.58l-.1-.05a2.91,2.91,0,0,0-3.71.76l-1.86,2.38a3,3,0,0,1-2,1.11l-5.12.55a3,3,0,0,0-.84.21l-8.11,3.47a3.06,3.06,0,0,1-1.15.23h-3.9a2.93,2.93,0,0,1-2.42-1.28l-.56-.82a2.93,2.93,0,0,0-3.26-1.15L623,478.29a2.94,2.94,0,0,1-1.9-.07l-4.22-1.62a2.88,2.88,0,0,0-1-.2h-9.06a2.81,2.81,0,0,0-1.14.24l-9,3.82a2.9,2.9,0,0,1-2,.11l-4.45-1.33a2.94,2.94,0,0,0-2.57.44l-1.95,1.43a2.93,2.93,0,0,1-3.93-.43l-.29-.33a2.93,2.93,0,0,0-3.24-.81L571,482.31a2.92,2.92,0,0,1-2,0l-3.18-1.14a3,3,0,0,0-1.8-.05l-3,.87a2.93,2.93,0,0,1-3.43-1.5l-1.12-2.25a2.94,2.94,0,0,0-2.62-1.62h-2.6a2.9,2.9,0,0,1-1-.16l-10.09-3.54a2.9,2.9,0,0,0-2.24.12l-7.37,3.54a3,3,0,0,1-1.27.29h-9.31a3.06,3.06,0,0,0-1.15.23l-1.9.82a2.94,2.94,0,0,1-3.46-.89h0a2.92,2.92,0,0,0-2.31-1.13h-4.7a2.94,2.94,0,0,0-1.86.66l-2.73,2.24a2.91,2.91,0,0,1-3.93-.2l-.62-.62a2.93,2.93,0,0,0-3.13-.67l-2.72,1.05a3,3,0,0,1-2.29-.08l-9.57-4.44a2.37,2.37,0,0,0-.53-.18l-7.51-1.85a2.91,2.91,0,0,0-3.16,1.26l-4.72,7.36a3,3,0,0,0-.39.92l-1.43,6.25a3,3,0,0,1-1.2,1.76l-3.12,2.14a2.9,2.9,0,0,1-2.63.34l-6.42-2.28A2.93,2.93,0,0,0,444.9,491l-3.38,6.32a3,3,0,0,0-.34,1.38v2.85a2.94,2.94,0,0,1-2.15,2.82l-5.62,1.56a2.88,2.88,0,0,1-1.81-.08L426.7,504a2.88,2.88,0,0,0-1.3-.18l-8.45.77a2.9,2.9,0,0,1-2.43-.94l-1-1.11a2.84,2.84,0,0,0-1.59-.9l-3.85-.78a3,3,0,0,0-2.28.49l-5.07,3.61a3,3,0,0,1-1.54.54l-7.77.41a3.06,3.06,0,0,0-.86.18l-13.49,5a2.86,2.86,0,0,1-2.34-.14l-3.9-2a2.93,2.93,0,0,0-1.33-.32H355a2.93,2.93,0,0,1-1.84-.65l-3.51-2.81a2.93,2.93,0,0,0-3.53-.1l-3.76,2.68a2.94,2.94,0,0,0-1.23,2.39v28.11a2.93,2.93,0,0,0,2.93,2.93H856.65a2.93,2.93,0,0,0,2.93-2.93l-.14-109.77A2.93,2.93,0,0,0,854.89,426Z" transform="translate(-31.03 -79.42)" fill="#007bff" opacity="0.3"/><circle cx="825.93" cy="345.84" r="7" fill="#007bff"/><path d="M856.51,494.51,847,497.68a2.49,2.49,0,0,0-.52.25l-5.22,3.45a2.22,2.22,0,0,1-1.28.36l-3.25-.08a2.22,2.22,0,0,1-1.6-.73l-2-2.2a2.23,2.23,0,0,0-3.18-.13l-3.37,3.16a2.2,2.2,0,0,1-1.52.61H813.38a2.21,2.21,0,0,1-2-1.24l-2.67-5.33a2.23,2.23,0,0,0-3.18-.89L789,505.38a2.25,2.25,0,0,1-1.68.29L776,503.12a2.17,2.17,0,0,0-1.26.08l-4.13,1.53a1.41,1.41,0,0,0-.31.14l-9.13,5.06a2.3,2.3,0,0,1-1.15.28l-6.76-.22a2,2,0,0,0-.35,0l-6.5.83a2.27,2.27,0,0,1-1.6-.41l-1.32-1a2.2,2.2,0,0,0-1.35-.43l-7.13.1a2.12,2.12,0,0,0-.83.17l-3.2,1.35a2.24,2.24,0,0,1-2.36-.41L726,507.87a2.22,2.22,0,0,0-2-.51L713.06,510l-11.25,2.91a2.19,2.19,0,0,1-.92,0l-9.5-1.58a3.55,3.55,0,0,0-.46,0l-17.57.79a2.22,2.22,0,0,0-1.71.93L669,516.7a2.22,2.22,0,0,1-2.4.85l-2.83-.78a2.26,2.26,0,0,0-1.79.28l-2.83,1.81a2.29,2.29,0,0,1-1.08.34l-6,.33a2,2,0,0,0-.34,0l-8.66,1.85a2.5,2.5,0,0,1-.47.05h-5.08a2.21,2.21,0,0,1-1.31-.43l-1.32-1a2.19,2.19,0,0,0-1.64-.41l-10.81,1.62a2.36,2.36,0,0,1-.75,0l-5.08-1a2,2,0,0,0-.42,0h-9.75a2.4,2.4,0,0,0-.46,0l-9.89,2.1a2.15,2.15,0,0,1-.8,0l-5.89-.89a2.29,2.29,0,0,0-1.1.12l-3.78,1.38a2.19,2.19,0,0,1-1.87-.16l-1.79-1a2.16,2.16,0,0,0-1.51-.26l-9,1.71a2.21,2.21,0,0,1-.81,0l-4.33-.77a2.42,2.42,0,0,0-.71,0l-4.78.69a2.2,2.2,0,0,1-1.89-.62L556.25,521a2.28,2.28,0,0,0-1.58-.65h-3.79a2.34,2.34,0,0,1-.38,0l-11.06-1.94a2.15,2.15,0,0,0-.91,0l-8.36,2a2.24,2.24,0,0,1-.52.06H519.58a2.31,2.31,0,0,0-.46,0l-3.41.73A2.28,2.28,0,0,1,514,521l-.94-.61a2.24,2.24,0,0,0-1.2-.35h-6.09a2.21,2.21,0,0,0-.84.17l-4.26,1.74a2.19,2.19,0,0,1-1.84-.07l-2.26-1.14a2.25,2.25,0,0,0-1.42-.2l-4.46.86a2.2,2.2,0,0,1-.92,0L479.43,519l-.23,0-8.79-1.09a2.26,2.26,0,0,0-1.64.46l-5,3.88a2.18,2.18,0,0,0-.65.82L462,525.56a2.25,2.25,0,0,1-1.3,1.18l-3.84,1.31a2.1,2.1,0,0,1-1.11.09l-8.54-1.52a2.24,2.24,0,0,0-1.91.57l-3.39,3.17a2.22,2.22,0,0,0-.7,1.63h0a2.22,2.22,0,0,1-1.92,2.2l-6.41.89a2.18,2.18,0,0,1-.72,0l-5.8-1.1a2.24,2.24,0,0,0-.52,0l-9.69.44a2.29,2.29,0,0,1-1.17-.27l-1.7-.93a2.12,2.12,0,0,0-.85-.27l-5.09-.51a2.28,2.28,0,0,0-1,.12l-6,2.13a2.28,2.28,0,0,1-.69.13l-8.53.23a2.07,2.07,0,0,0-.35,0l-14.45,2.67a2.34,2.34,0,0,1-.95,0l-4.92-1.26a2.6,2.6,0,0,0-.56-.07H354.38a2.12,2.12,0,0,1-.83-.16l-4.86-1.94a2.21,2.21,0,0,0-1.58,0l-4.52,1.61a2.21,2.21,0,0,0-1.48,2.09v1a2.22,2.22,0,0,0,2.22,2.23h514a2.22,2.22,0,0,0,2.22-2.23l-.13-42.27A2.23,2.23,0,0,0,856.51,494.51Z" transform="translate(-31.03 -79.42)" fill="#007bff" opacity="0.3"/><circle cx="440.93" cy="392.84" r="7" fill="#007bff"/><circle cx="776.93" cy="348.84" r="7" fill="#007bff"/><circle cx="602.93" cy="395.84" r="7" fill="#007bff"/><circle cx="693.93" cy="370.84" r="7" fill="#007bff"/><path d="M860.44,428.42a2.93,2.93,0,0,0-4.55-2.43l-7.74,5.16a3,3,0,0,0-.71.67l-4.81,6.35a3,3,0,0,1-2.48,1.16l-1.57-.08a2.94,2.94,0,0,1-2.53-1.72l-1-2.13a2.92,2.92,0,0,0-5.25-.17l-2,3.83a2.92,2.92,0,0,1-2.59,1.55h-9.92a2.91,2.91,0,0,1-2.84-2.22l-2.38-9.53a2.93,2.93,0,0,0-5.14-1.11l-14.3,18.08a2.91,2.91,0,0,1-3.5.85l-9.19-4.15a2.93,2.93,0,0,0-3,.31l-3.29,2.43a2.72,2.72,0,0,0-.43.4l-8.68,9.61a2.93,2.93,0,0,1-2.36,1l-5.67-.36a3.16,3.16,0,0,0-.92.08l-5.11,1.31a2.92,2.92,0,0,1-3.15-1.18l-.58-.86a2.93,2.93,0,0,0-2.5-1.27l-5.7.17a2.82,2.82,0,0,0-1.79.68l-1.4,1.17a2.93,2.93,0,0,1-4.45-.83l-1.48-2.68a2.93,2.93,0,0,0-3.83-1.23l-9.59,4.61-10.61,5.48a2.91,2.91,0,0,1-2.26.17l-8.45-2.8a3,3,0,0,0-1.18-.14L675.15,460a3,3,0,0,0-2.5,1.93l-2.37,6.62a2.93,2.93,0,0,1-4.16,1.58l-.1-.05a2.91,2.91,0,0,0-3.71.76l-1.86,2.38a3,3,0,0,1-2,1.11l-5.12.55a3,3,0,0,0-.84.21l-8.11,3.47a3.06,3.06,0,0,1-1.15.23h-3.9a2.93,2.93,0,0,1-2.42-1.28l-.56-.82a2.93,2.93,0,0,0-3.26-1.15L624,478.29a2.94,2.94,0,0,1-1.9-.07l-4.22-1.62a2.88,2.88,0,0,0-1-.2h-9.06a2.81,2.81,0,0,0-1.14.24l-9,3.82a2.9,2.9,0,0,1-2,.11l-4.45-1.33a2.94,2.94,0,0,0-2.57.44l-1.95,1.43a2.93,2.93,0,0,1-3.93-.43l-.29-.33a2.93,2.93,0,0,0-3.24-.81L572,482.31a2.92,2.92,0,0,1-2,0l-3.18-1.14a3,3,0,0,0-1.8-.05l-3,.87a2.93,2.93,0,0,1-3.43-1.5l-1.12-2.25a2.94,2.94,0,0,0-2.62-1.62h-2.6a2.9,2.9,0,0,1-1-.16l-10.09-3.54a2.9,2.9,0,0,0-2.24.12l-7.37,3.54a3,3,0,0,1-1.27.29h-9.31a3.06,3.06,0,0,0-1.15.23l-1.9.82a2.94,2.94,0,0,1-3.46-.89h0a2.92,2.92,0,0,0-2.31-1.13h-4.7a2.94,2.94,0,0,0-1.86.66l-2.73,2.24a2.91,2.91,0,0,1-3.93-.2l-.62-.62a2.93,2.93,0,0,0-3.13-.67l-2.72,1.05a3,3,0,0,1-2.29-.08l-9.57-4.44a2.37,2.37,0,0,0-.53-.18l-7.51-1.85a2.91,2.91,0,0,0-3.16,1.26l-4.72,7.36a3,3,0,0,0-.39.92l-1.43,6.25a3,3,0,0,1-1.2,1.76l-3.12,2.14a2.9,2.9,0,0,1-2.63.34l-6.42-2.28A2.93,2.93,0,0,0,445.9,491l-3.38,6.32a3,3,0,0,0-.34,1.38v2.85a2.94,2.94,0,0,1-2.15,2.82l-5.62,1.56a2.88,2.88,0,0,1-1.81-.08L427.7,504a2.88,2.88,0,0,0-1.3-.18l-8.45.77a2.9,2.9,0,0,1-2.43-.94l-1-1.11a2.84,2.84,0,0,0-1.59-.9l-3.85-.78a3,3,0,0,0-2.28.49l-5.07,3.61a3,3,0,0,1-1.54.54l-7.77.41a3.06,3.06,0,0,0-.86.18l-13.49,5a2.86,2.86,0,0,1-2.34-.14l-3.9-2a2.93,2.93,0,0,0-1.33-.32H356a2.93,2.93,0,0,1-1.84-.65l-3.51-2.81a2.93,2.93,0,0,0-3.53-.1l-3.76,2.68a2.94,2.94,0,0,0-1.23,2.39" transform="translate(-31.03 -79.42)" fill="none" stroke="#007bff" stroke-miterlimit="10"/><rect x="280.93" y="502.79" width="585" height="0.1" fill="#f2f2f2" opacity="0.2"/><circle cx="370.93" cy="502.84" r="5" fill="#007bff" opacity="0.3"/><circle cx="443.93" cy="502.84" r="5" fill="#007bff" opacity="0.3"/><circle cx="516.93" cy="502.84" r="5" fill="#007bff" opacity="0.3"/><circle cx="589.93" cy="502.84" r="5" fill="#007bff" opacity="0.3"/><circle cx="662.93" cy="502.84" r="5" fill="#007bff" opacity="0.3"/><circle cx="735.93" cy="502.84" r="5" fill="#007bff" opacity="0.3"/><circle cx="808.93" cy="502.84" r="5" fill="#007bff" opacity="0.3"/><path d="M270.73,775.08c-3-5.51.4-12.26,4.29-17.17s8.61-10,8.51-16.29c-.15-9-9.7-14.32-17.33-19.09A84,84,0,0,1,250.64,710a23,23,0,0,1-4.78-6.4c-1.58-3.52-1.54-7.52-1.44-11.37q.51-19.28,1.91-38.49" transform="translate(-31.03 -79.42)" fill="none" stroke="#3f3d56" stroke-miterlimit="10" stroke-width="4"/><path d="M231.82,653.06a14,14,0,0,1,7-11.5l3.14,6.21-.1-7.52a14.22,14.22,0,0,1,4.63-.56,14,14,0,1,1-14.68,13.37Z" transform="translate(-31.03 -79.42)" fill="#57b894"/><path d="M256.85,748.05a14,14,0,1,0-.68-11.3l8.77,7.13-9.65-2.23A14,14,0,0,0,256.85,748.05Z" transform="translate(-31.03 -79.42)" fill="#57b894"/><path d="M263.78,720.8a14,14,0,0,0,4.45-27.53l.08,5.78-3.18-6.29h0a14,14,0,0,0-14.67,13.36,13.84,13.84,0,0,0,.6,4.79A14,14,0,0,0,263.78,720.8Z" transform="translate(-31.03 -79.42)" fill="#57b894"/><path d="M229.71,698.13a14,14,0,1,0-6.21-26.27l2.48,6.8-5.1-4.9a14,14,0,0,0-4.53,9.69,13.79,13.79,0,0,0,.35,3.87A14.05,14.05,0,0,0,229.71,698.13Z" transform="translate(-31.03 -79.42)" fill="#57b894"/></svg>
