<svg id="bc137ec4-450d-48ae-9585-2def8928b892" data-name="Layer 1" xmlns="http://www.w3.org/2000/svg" width="888" height="552.12922" viewBox="0 0 888 552.12922"><title>drone_surveillance</title><path d="M479.90234,562.18555a3.86767,3.86767,0,0,0-3.86279,3.86328V720.36328a3.86767,3.86767,0,0,0,3.86279,3.86328h26.1958a3.86768,3.86768,0,0,0,3.8628-3.86328V566.04883a3.86768,3.86768,0,0,0-3.8628-3.86328Z" transform="translate(-156 -173.93539)" fill="#3f3d56"/><path d="M697.74121,562.18555a3.86809,3.86809,0,0,0-3.86328,3.86328V720.36328a3.86809,3.86809,0,0,0,3.86328,3.86328h26.19531a3.86809,3.86809,0,0,0,3.86328-3.86328V566.04883a3.86809,3.86809,0,0,0-3.86328-3.86328Z" transform="translate(-156 -173.93539)" fill="#3f3d56"/><polygon points="664.127 265.647 463.273 250.14 623.513 277.462 661.912 270.816 664.127 265.647" fill="#3f3d56"/><polygon points="624.99 275.031 663.389 268.385 663.766 267.505 665.604 267.647 663.389 272.816 624.99 279.462 464.75 250.14 512.237 255.806 624.99 275.031" fill="#007bff"/><polygon points="209.251 265.647 8.396 250.14 168.637 277.462 207.036 270.816 209.251 265.647" fill="#3f3d56"/><polygon points="166.422 275.031 204.82 268.385 205.198 267.505 207.036 267.647 204.82 272.816 166.422 279.462 6.181 250.14 53.668 255.806 166.422 275.031" fill="#007bff"/><path d="M854.09532,520.07184l-16.984.73844-155.5958,65.6469L672.61,593.91541l-28.23038,23.62994H555.76731l-26.68708-23.62994-10.1461-8.9868-149.25261-63.3799-13.29184-1.47687,44.30614-21.41463h.23631c10.0427-9.53323,97.01568-16.984,202.8335-16.984s192.79079,7.45079,202.8335,16.984h.97474Z" transform="translate(-156 -173.93539)" fill="#3f3d56"/><path d="M399.47889,499.75191a8.27564,8.27564,0,0,0,.47852-2.75769V461.92146a8.30885,8.30885,0,0,0-8.30884-8.30883h-3.37366a19.93774,19.93774,0,1,0-28.32556,0h-3.37359a8.30881,8.30881,0,0,0-8.30884,8.30883v35.07276a8.26212,8.26212,0,0,0,1.08465,4.09521c-2.50775.4397-5.01556.917-7.52331,1.46857a6.877,6.877,0,0,0-5.37634,6.72424v8.33295a6.88724,6.88724,0,0,0,6.8872,6.88727H421.372V503.82625A177.61335,177.61335,0,0,0,399.47889,499.75191Z" transform="translate(-156 -173.93539)" fill="#3f3d56"/><path d="M861.27235,502.558c-2.50775-.55157-5.0155-1.02893-7.52325-1.46857a8.26212,8.26212,0,0,0,1.08465-4.09521V461.92146a8.30881,8.30881,0,0,0-8.30884-8.30883h-3.37359a19.93778,19.93778,0,1,0-28.32563,0H811.4521a8.30881,8.30881,0,0,0-8.30884,8.30883v35.07276a8.27564,8.27564,0,0,0,.47852,2.75769,177.61335,177.61335,0,0,0-21.89313,4.07434v20.67621h78.03284a6.88724,6.88724,0,0,0,6.8872-6.88727v-8.33295A6.877,6.877,0,0,0,861.27235,502.558Z" transform="translate(-156 -173.93539)" fill="#3f3d56"/><polygon points="681.85 265.647 882.704 250.14 722.464 277.462 684.065 270.816 681.85 265.647" fill="#3f3d56"/><path d="M615.6533,610.89943H584.4936a8.78851,8.78851,0,0,0-8.78853,8.78852v6.79128a8.78369,8.78369,0,0,0,5.68218,8.213,8.58909,8.58909,0,0,0-1.99,5.50911v1.94786a8.61086,8.61086,0,0,0,3.69218,7.06972v25.92439h33.968V649.21894a8.61088,8.61088,0,0,0,3.69218-7.06972v-1.94786a8.58909,8.58909,0,0,0-1.99-5.50911,8.78369,8.78369,0,0,0,5.68218-8.213V619.688A8.78851,8.78851,0,0,0,615.6533,610.89943Z" transform="translate(-156 -173.93539)" fill="#3f3d56"/><path d="M568.40771,671.47461a5.239,5.239,0,0,0-5.23291,5.23242v41.917a5.23917,5.23917,0,0,0,5.23291,5.2334h63.33155a5.23907,5.23907,0,0,0,5.23242-5.2334V676.707a5.23887,5.23887,0,0,0-5.23242-5.23242Z" transform="translate(-156 -173.93539)" fill="#007bff"/><path d="M672.61,593.91541l-28.23038,23.62994H555.76731l-26.68708-23.62994h26.53938l1.15935-5.782a7.50328,7.50328,0,0,1,7.35484-6.033h74.09461a7.50326,7.50326,0,0,1,7.35483,6.033l1.15935,5.782Z" transform="translate(-156 -173.93539)" fill="#007bff"/><circle cx="444.07345" cy="523.73023" r="20.6762" fill="#3f3d56"/><circle cx="444.07345" cy="523.73023" r="11.81497" fill="#e6e6e6"/><path d="M607.21506,688.26905a11.79947,11.79947,0,0,1-16.538,16.53825,11.80444,11.80444,0,1,0,16.538-16.53825Z" transform="translate(-156 -173.93539)" fill="#fff"/><rect x="180.8211" y="337.43041" width="530.19637" height="3.38212" fill="#e6e6e6"/><polygon points="723.941 275.031 685.542 268.385 685.165 267.505 683.327 267.647 685.542 272.816 723.941 279.462 884.181 250.14 836.694 255.806 723.941 275.031" fill="#007bff"/><polygon points="226.973 265.647 427.828 250.14 267.587 277.462 229.189 270.816 226.973 265.647" fill="#3f3d56"/><polygon points="269.803 275.031 231.404 268.385 231.027 267.505 229.189 267.647 231.404 272.816 269.803 279.462 430.043 250.14 382.556 255.806 269.803 275.031" fill="#007bff"/><rect x="415.64368" y="414.44175" width="59.07485" height="11.81497" fill="#e6e6e6"/><path d="M411.21655,173.93539H232.14569a23.99169,23.99169,0,0,0-23.9646,23.96455v95.07091a23.9917,23.9917,0,0,0,23.9646,23.96454H411.21655a23.9917,23.9917,0,0,0,23.96454-23.96454V197.89994a23.99169,23.99169,0,0,0-23.96454-23.96455Z" transform="translate(-156 -173.93539)" fill="#e6e6e6"/><path d="M232.14546,193.43538a4.46908,4.46908,0,0,0-4.46436,4.46436V292.971a4.46908,4.46908,0,0,0,4.46436,4.46436H411.21675a4.46908,4.46908,0,0,0,4.46435-4.46436V197.89974a4.46908,4.46908,0,0,0-4.46435-4.46436Z" transform="translate(-156 -173.93539)" fill="#fff"/><path d="M318.05769,287.4132q-.09163,0-.18408-.00512a3.229,3.229,0,0,1-3.0025-2.693l-10.36384-62.18336-9.15078,36.60313a3.22909,3.22909,0,0,1-3.13268,2.44593h-12.9162a3.229,3.229,0,1,1,0-6.4581H289.7027l12.30464-49.21887a3.229,3.229,0,0,1,6.31777.25227l10.56143,63.36824,8.98109-31.434a3.229,3.229,0,0,1,6.16809-.134l5.72218,17.16635h10.58882a3.22905,3.22905,0,0,1,0,6.4581H337.43051a3.229,3.229,0,0,1-3.0633-2.20795l-3.1575-9.47223L321.161,285.07123A3.22925,3.22925,0,0,1,318.05769,287.4132Z" transform="translate(-156 -173.93539)" fill="#007bff"/><circle cx="201.78353" cy="84.46667" r="9.50011" fill="#3f3d56"/><path d="M689.21655,173.93539H510.14563a23.99169,23.99169,0,0,0-23.96454,23.96455v95.07091a23.9917,23.9917,0,0,0,23.96454,23.96454H689.21655a23.99168,23.99168,0,0,0,23.96454-23.96454V197.89994a23.99167,23.99167,0,0,0-23.96454-23.96455Z" transform="translate(-156 -173.93539)" fill="#e6e6e6"/><path d="M510.14546,193.43538a4.46908,4.46908,0,0,0-4.46436,4.46436V292.971a4.46908,4.46908,0,0,0,4.46436,4.46436H689.21675a4.46908,4.46908,0,0,0,4.46435-4.46436V197.89974a4.46908,4.46908,0,0,0-4.46435-4.46436Z" transform="translate(-156 -173.93539)" fill="#fff"/><circle cx="443.6811" cy="52.99712" r="23.62069" fill="#007bff"/><path d="M443.68107,80.55459h.00006a31.49422,31.49422,0,0,1,31.49422,31.49422v1.57474a0,0,0,0,1,0,0H412.18685a0,0,0,0,1,0,0v-1.57474A31.49422,31.49422,0,0,1,443.68107,80.55459Z" fill="#007bff"/><circle cx="395.65237" cy="71.89367" r="16.53448" fill="#3f3d56"/><path d="M567.8456,269.96044a22.041,22.041,0,0,0-36.6645,16.49619v1.10231h32.28161v-1.57476A31.3396,31.3396,0,0,1,567.8456,269.96044Z" transform="translate(-156 -173.93539)" fill="#3f3d56"/><circle cx="491.70984" cy="71.89367" r="16.53448" fill="#3f3d56"/><path d="M631.5166,269.96044a22.041,22.041,0,0,1,36.6645,16.49619v1.10231H635.89949v-1.57476A31.3395,31.3395,0,0,0,631.5166,269.96044Z" transform="translate(-156 -173.93539)" fill="#3f3d56"/><path d="M967.21655,173.93539H788.14569a23.99168,23.99168,0,0,0-23.9646,23.96455v95.07091a23.99169,23.99169,0,0,0,23.9646,23.96454H967.21655a23.99168,23.99168,0,0,0,23.96454-23.96454V197.89994a23.99167,23.99167,0,0,0-23.96454-23.96455Z" transform="translate(-156 -173.93539)" fill="#e6e6e6"/><path d="M788.14546,193.43538a4.46908,4.46908,0,0,0-4.46436,4.46436V292.971a4.46908,4.46908,0,0,0,4.46436,4.46436H967.21675a4.46908,4.46908,0,0,0,4.46435-4.46436V197.89974a4.46908,4.46908,0,0,0-4.46435-4.46436Z" transform="translate(-156 -173.93539)" fill="#fff"/><g opacity="0.1"><path d="M205.72,515.34c-.41.74-3.35,2.5-6.93,4.44-.33-2.6-.57-4.58-.62-5.18-.22-2.24,4.55-12.22,4.55-12.22s9.11-12.23,8.9-14.06,3.52-7.13,3.52-7.13l8.25-13.4a6.06,6.06,0,0,0,.86,6.27c2.49,3.26.41,9.78.41,9.78l.5,8.22.05.81c-.3.29-1.62,1.56-4.56,4.21-2.72,2.45-2.23,3.19-1.93,3.39-.61,1.1.15,1.29.15,1.29.24,0,.48,0,.71-.05l-.65.6C213.82,507.06,206.46,514,205.72,515.34Z" transform="translate(-16.15 -90.8)" fill="url(#bcdb2a22-93f8-4c81-b6d3-8137c026104f)"/></g><g style="transform: scale(0.1);transform-origin: 85% 7%;"><path d="M165.23,801.37s-42.27-2.55-37.29,27.08c0,0-1,5.23,3.75,7.61,0,0,.08-2.2,4.34-1.45a19.36,19.36,0,0,0,4.59.22,9.57,9.57,0,0,0,5.62-2.32h0s11.88-4.91,16.51-24.33c0,0,3.42-4.24,3.28-5.33l-7.13,3s2.43,5.15.52,9.42c0,0-.24-9.23-1.61-9-.28.05-3.7,1.79-3.7,1.79s4.19,9,1,15.48c0,0,1.2-11.05-2.34-14.84l-5,2.94s4.91,9.26,1.58,16.81c0,0,.85-11.59-2.63-16.1l-4.55,3.55s4.6,9.13,1.79,15.39c0,0-.36-13.49-2.78-14.51,0,0-4,3.51-4.59,5,0,0,3.16,6.62,1.2,10.12,0,0-1.2-9-2.18-9,0,0-4,5.95-4.38,10,0,0,.17-6.08,3.41-10.61a11.89,11.89,0,0,0-6.07,3.14s.62-4.21,7.05-4.58c0,0,3.28-4.51,4.16-4.79,0,0-6.4-.53-10.28,1.19,0,0,3.41-4,11.45-2.17l4.5-3.67s-8.43-1.15-12,.12c0,0,4.11-3.51,13.21-.95l4.89-2.92s-7.19-1.55-11.47-1c0,0,4.52-2.44,12.9.2l3.5-1.57s-5.27-1-6.81-1.2-1.62-.59-1.62-.59a18.26,18.26,0,0,1,9.89,1.1S165.36,801.84,165.23,801.37Z" transform="translate(-106.19 -56.3)" fill="#3c74f3"/><ellipse cx="29.92" cy="782.34" rx="29.92" ry="5.06" fill="#3c74f3" opacity="0.1"/><path d="M1093.36,734.08s-23.84-1.44-21,15.26a4.08,4.08,0,0,0,2.12,4.3s0-1.24,2.44-.82a11.15,11.15,0,0,0,2.59.12,5.39,5.39,0,0,0,3.17-1.3h0s6.7-2.77,9.31-13.72c0,0,1.92-2.39,1.85-3l-4,1.72s1.37,2.9.29,5.32c0,0-.13-5.21-.9-5.09-.16,0-2.1,1-2.1,1s2.37,5,.59,8.72c0,0,.67-6.22-1.32-8.36l-2.84,1.65s2.77,5.23.89,9.49c0,0,.49-6.54-1.48-9.08l-2.57,2s2.6,5.14,1,8.68c0,0-.21-7.61-1.57-8.18a15.64,15.64,0,0,0-2.59,2.79s1.78,3.73.68,5.71c0,0-.68-5.07-1.24-5.09,0,0-2.23,3.35-2.46,5.65a12.18,12.18,0,0,1,1.92-6,6.69,6.69,0,0,0-3.42,1.78s.35-2.38,4-2.59c0,0,1.85-2.54,2.35-2.7,0,0-3.61-.3-5.8.67,0,0,1.93-2.24,6.46-1.22l2.53-2.07s-4.75-.65-6.76.07c0,0,2.32-2,7.44-.54l2.76-1.65a24.87,24.87,0,0,0-6.46-.55s2.54-1.38,7.27.11l2-.89s-3-.58-3.83-.67-.92-.33-.92-.33a10.32,10.32,0,0,1,5.58.62S1093.43,734.34,1093.36,734.08Z" transform="translate(-106.19 -56.3)" fill="#3c74f3"/><ellipse cx="970.75" cy="698.79" rx="16.87" ry="2.85" fill="#3c74f3" opacity="0.1"/><path d="M1044.34,779.55S1015.56,777.82,1019,798a4.93,4.93,0,0,0,2.56,5.19s0-1.5,3-1a13.14,13.14,0,0,0,3.13.15,6.52,6.52,0,0,0,3.82-1.58h0s8.09-3.34,11.23-16.56c0,0,2.33-2.89,2.24-3.63l-4.86,2.08s1.66,3.5.36,6.41c0,0-.16-6.29-1.09-6.14-.19,0-2.53,1.21-2.53,1.21s2.86,6.11.7,10.54c0,0,.82-7.52-1.59-10.09l-3.42,2s3.34,6.31,1.08,11.45c0,0,.58-7.89-1.8-11l-3.09,2.41s3.13,6.22,1.22,10.48c0,0-.25-9.18-1.9-9.87,0,0-2.71,2.38-3.12,3.37,0,0,2.15,4.51.82,6.89,0,0-.82-6.12-1.49-6.15,0,0-2.7,4.05-3,6.83a14.77,14.77,0,0,1,2.33-7.22,8.15,8.15,0,0,0-4.14,2.14s.42-2.86,4.8-3.11c0,0,2.23-3.08,2.83-3.27,0,0-4.36-.36-7,.81,0,0,2.33-2.7,7.8-1.47l3.06-2.5s-5.74-.79-8.17.08c0,0,2.8-2.39,9-.65l3.33-2s-4.89-1.05-7.8-.67c0,0,3.07-1.66,8.78.14l2.38-1.07s-3.59-.71-4.63-.82-1.11-.4-1.11-.4a12.43,12.43,0,0,1,6.73.75S1044.42,779.87,1044.34,779.55Z" transform="translate(-106.19 -56.3)" fill="#3c74f3"/><ellipse cx="918.32" cy="748.62" rx="20.37" ry="3.44" fill="#3c74f3" opacity="0.1"/><ellipse cx="805.49" cy="726.42" rx="92.33" ry="14.41" fill="#3c74f3" opacity="0.1"/><ellipse cx="513.32" cy="767.92" rx="103.75" ry="10.41" fill="#3c74f3" opacity="0.1"/><ellipse cx="198.99" cy="763.13" rx="78.75" ry="4.86" fill="#3c74f3" opacity="0.1"/><path d="M445,90.55c29.21-26,75.07-31.33,116.8-29.26,131.09,6.51,249.42,69.8,351.78,141.39,37.06,25.91,73.54,53.84,97.59,89.53,49,72.64,34.44,173.28-33.64,233.13-23.17,20.36-51.25,36-80.08,49.81-51.26,24.61-106.57,44.36-164.74,50-41.49,4-83.49.75-124.73-4.85C492.74,604.66,379.63,570.1,284.83,511,243.25,485,204.05,452.8,186.91,410.85s-6.17-95.11,36.29-119.94c17.56-10.27,38.56-14.91,59.11-19.26,30.26-6.41,61-12.73,88.31-25.77,28.2-13.46,61.59-39.49,56-69.28C420.64,144.63,415.83,116.55,445,90.55Z" transform="translate(-106.19 -56.3)" fill="#3c74f3" opacity="0.1"/><path d="M687.05,448.08V257.14h26v-57H526.75v57h26V448.08a189.38,189.38,0,0,0-122.14,177c0,104.55,84.76,189.3,189.31,189.3s189.3-84.75,189.3-189.3A189.37,189.37,0,0,0,687.05,448.08Z" transform="translate(-106.19 -56.3)" fill="#96b7fe" opacity="0.9"/><rect x="446.52" y="200.25" width="134.34" height="2.57" opacity="0.1"/><path d="M514,620s114-2,171-30.53,89.57-3.06,86.51,14.25-19.33,50.88-84.47,55S514,620,514,620Z" transform="translate(-106.19 -56.3)" fill="#3c74f3"/><path d="M514,620s114-2,171-30.53,89.57-3.06,86.51,14.25-19.33,50.88-84.47,55S514,620,514,620Z" transform="translate(-106.19 -56.3)" opacity="0.1"/><path d="M465.18,601.7S453,770.65,612.75,773.7s158.77-170,158.77-170-59,64.11-198.46,11.19C573.06,614.93,500.8,595.59,465.18,601.7Z" transform="translate(-106.19 -56.3)" fill="#3c74f3"/><path d="M771,604.31c-3.19,38.92-23.88,160.75-158.19,158.18C481.15,760,466.24,644.9,465.07,604.41c-.73,21.73-.08,166.45,147.71,169.28,159.79,3,158.77-170,158.77-170S771.35,603.94,771,604.31Z" transform="translate(-106.19 -56.3)" opacity="0.1"/><circle cx="507.53" cy="472.5" r="20.73" fill="#3c74f3" opacity="0.3"/><circle cx="519.37" cy="389.57" r="12.83" fill="#3c74f3" opacity="0.3"/><circle cx="490.74" cy="315.52" r="12.83" fill="#3c74f3" opacity="0.3"/><path d="M487,544.79c-1.1,8.74-.88,19.68,6.93,23.76-6.55-3.42,20.3-42.2,16.49-50.12C502.27,501.53,488,536.67,487,544.79Z" transform="translate(-106.19 -56.3)" fill="#fff" opacity="0.2"/><circle cx="480.37" cy="85.01" r="20.73" fill="#3c74f3" opacity="0.3"/><circle cx="542.56" cy="49.47" r="15.41" fill="#3c74f3" opacity="0.3"/><circle cx="498.14" cy="8.01" r="8.01" fill="#3c74f3" opacity="0.3"/><path d="M390,319.48H222.47v49.69H248V756.83a58.25,58.25,0,1,0,116.49,0V369.17H390Z" transform="translate(-106.19 -56.3)" fill="#96b7fe" opacity="0.9"/><path d="M286.81,457s41.46-14.81,53-4.28c0,0-16.79,24.68-32.25,23.69S286.81,457,286.81,457Z" transform="translate(-106.19 -56.3)" fill="#3c74f3"/><path d="M286.81,457s41.46-14.81,53-4.28c0,0-16.79,24.68-32.25,23.69S286.81,457,286.81,457Z" transform="translate(-106.19 -56.3)" opacity="0.1"/><path d="M339.79,452.76V734.12a35.54,35.54,0,0,1-35.54,35.54h0a35.54,35.54,0,0,1-35.54-35.54V452.76s17.11-4.61,33.23,5.27S339.79,452.76,339.79,452.76Z" transform="translate(-106.19 -56.3)" fill="#3c74f3"/><rect x="141.79" y="312.56" width="116.49" height="2.29" opacity="0.1"/><path d="M304.25,752.55h0A35.54,35.54,0,0,1,268.71,717v17.77a35.54,35.54,0,0,0,35.54,35.54h0a35.54,35.54,0,0,0,35.54-35.54V717A35.54,35.54,0,0,1,304.25,752.55Z" transform="translate(-106.19 -56.3)" opacity="0.1"/><circle cx="198.07" cy="361.59" r="7.24" fill="#3c74f3" opacity="0.3"/><circle cx="221.76" cy="335.92" r="4.61" fill="#3c74f3" opacity="0.3"/><circle cx="189.51" cy="326.71" r="4.61" fill="#3c74f3" opacity="0.3"/><path d="M257,510.24c-1.1,8.74-.88,19.68,6.93,23.76-6.56-3.42,20.3-42.19,16.49-50.12C272.25,467,258,502.13,257,510.24Z" transform="translate(-106.19 -56.3)" fill="#fff" opacity="0.2"/><circle cx="213.09" cy="214.5" r="17.59" fill="#3c74f3" opacity="0.3"/><circle cx="160.32" cy="184.34" r="13.08" fill="#3c74f3" opacity="0.3"/><circle cx="198.01" cy="149.16" r="6.8" fill="#3c74f3" opacity="0.3"/></g></svg>
